<svg width="70" height="84" viewBox="0 0 70 84" fill="none" xmlns="http://www.w3.org/2000/svg">
<path d="M31.5 1C31.5 1 39.4332 7.63679 35.314 16C31.1949 24.3632 33.6802 29.7092 34.7355 31" stroke="#A0A0A0" stroke-width="2" stroke-linecap="round" stroke-linejoin="round"/>
<path d="M44.2098 10C45.4687 11.2697 46.2509 12.8484 46.4497 14.5213C46.6486 16.1943 46.2545 17.8803 45.3212 19.3501C42.1132 24.757 44.1197 28 44.1197 28" stroke="#A0A0A0" stroke-width="2" stroke-linecap="round" stroke-linejoin="round"/>
<path d="M20.5 10C21.9856 11.191 22.9788 12.7211 23.3441 14.382C23.7094 16.043 23.4292 17.754 22.5416 19.2823C19.5222 24.8865 22.0031 28 22.0031 28" stroke="#A0A0A0" stroke-width="2" stroke-linecap="round" stroke-linejoin="round"/>
<path d="M8.5 51.1021V41.908C8.50144 41.1362 8.8083 40.3966 9.3534 39.8514C9.8985 39.3062 10.6374 39 11.4075 39H55.5925C56.3626 39 57.1012 39.3062 57.6463 39.8514C58.1914 40.3966 58.4986 41.1362 58.5 41.908V52.8404C58.5024 57.062 57.4393 61.2157 55.4098 64.9152C53.3802 68.6147 50.4501 71.7399 46.8918 74" stroke="#A0A0A0" stroke-width="2" stroke-linecap="round" stroke-linejoin="round"/>
<path d="M20.5 74C16.0071 71.136 12.5128 66.9427 10.5 62" stroke="#A0A0A0" stroke-width="2" stroke-linecap="round" stroke-linejoin="round"/>
<path d="M1.5 74H65.5C65.5 76.3869 64.4997 78.6761 62.7194 80.364C60.9391 82.0518 58.5246 83 56.007 83H11.0092C8.49151 83 6.07701 82.0518 4.29674 80.364C2.51648 78.6761 1.51641 76.3869 1.51641 74H1.5Z" stroke="#A0A0A0" stroke-width="2" stroke-linecap="round" stroke-linejoin="round"/>
<path d="M58.8855 45L57.8855 45.0003L57.8862 47.0003L58.8862 47L58.8855 45ZM55.8721 64.5718L54.9439 64.1997L54.1997 66.0561L55.1279 66.4282L55.8721 64.5718ZM58.8862 47C60.1824 46.9996 60.9593 47.2634 62.2511 47.8629L63.093 46.0487C61.6704 45.3885 60.5905 44.9994 58.8855 45L58.8862 47ZM62.2511 47.8629C63.4758 48.4313 64.5561 49.2588 65.415 50.2849L66.9487 49.0012C65.8997 47.748 64.5826 46.7401 63.093 46.0487L62.2511 47.8629ZM65.415 50.2849C66.2739 51.3109 66.8902 52.5103 67.221 53.7964L69.1579 53.2982C68.7525 51.7218 67.9977 50.2544 66.9487 49.0012L65.415 50.2849ZM67.221 53.7964C67.5517 55.0825 67.5889 56.4243 67.33 57.7259L69.2915 58.1162C69.6091 56.5201 69.5633 54.8747 69.1579 53.2982L67.221 53.7964ZM67.33 57.7259C67.0709 59.0277 66.522 60.2579 65.7215 61.3282L67.323 62.5261C68.3014 61.2182 68.9739 59.7122 69.2915 58.1162L67.33 57.7259ZM65.7215 61.3282C64.9209 62.3985 63.8884 63.2824 62.6972 63.9154L63.6358 65.6815C65.0853 64.9112 66.3447 63.834 67.323 62.5261L65.7215 61.3282ZM62.6972 63.9154C61.506 64.5484 60.1861 64.9146 58.8326 64.9868L58.9391 66.9839C60.5824 66.8963 62.1864 66.4518 63.6358 65.6815L62.6972 63.9154ZM58.8326 64.9868C58.0722 65.0273 57.6608 65.0382 57.2782 64.9895C56.9139 64.9433 56.532 64.8364 55.8721 64.5718L55.1279 66.4282C55.8577 66.7208 56.4195 66.8965 57.0261 66.9736C57.6144 67.0483 58.201 67.0233 58.9391 66.9839L58.8326 64.9868Z" fill="#A0A0A0"/>
<path d="M58.7673 52C59.3122 52.0009 59.8503 52.1292 60.344 52.376C60.8377 52.6228 61.2748 52.982 61.6251 53.4286C61.9754 53.8752 62.2302 54.3984 62.3717 54.9614C62.5132 55.5244 62.538 56.1137 62.4443 56.6881C62.3506 57.2624 62.1408 57.8079 61.8293 58.2863C61.5179 58.7647 61.1123 59.1644 60.6413 59.4576C60.1703 59.7507 59.645 59.9302 59.1024 59.9833C58.5598 60.0365 58.0129 59.9621 57.5 59.7653" stroke="#A0A0A0" stroke-width="2" stroke-linecap="round" stroke-linejoin="round"/>
</svg>
