<svg width="82" height="96" viewBox="0 0 82 96" fill="none" xmlns="http://www.w3.org/2000/svg">
<path d="M63 60L61.5 61" stroke="#A0A0A0" stroke-width="2" stroke-linecap="round" stroke-linejoin="round"/>
<path d="M22.5 44.8926C28.172 49.4991 35.344 51.8659 42.6518 51.5427C49.9596 51.2196 56.8932 48.2292 62.1341 43.1403L63.5454 41.7702C64.1519 41.1785 64.8732 40.7168 65.6652 40.4132C66.4572 40.1097 67.3031 39.9708 68.1509 40.0051C68.9987 40.0394 69.8304 40.2462 70.5952 40.6128C71.3599 40.9793 72.0415 41.4979 72.5979 42.1367V42.1367C73.875 43.5962 74.553 45.4823 74.4968 47.4185C74.4405 49.3547 73.6541 51.1985 72.2943 52.5818C70.7203 54.1816 69.0255 55.6587 67.2249 57" stroke="#A0A0A0" stroke-width="2" stroke-linecap="round" stroke-linejoin="round"/>
<path d="M58.5 62.3694C50.3605 65.9096 41.3427 66.8902 32.6365 65.1817C23.9303 63.4733 15.9447 59.156 9.73346 52.7997V52.7997C8.35667 51.3919 7.56021 49.5144 7.50328 47.5427C7.44634 45.5709 8.1331 43.6503 9.42634 42.1649V42.1649C10.3684 41.0814 11.6505 40.3527 13.061 40.0991C14.4714 39.8455 15.9259 40.0821 17.1842 40.77" stroke="#A0A0A0" stroke-width="2" stroke-linecap="round" stroke-linejoin="round"/>
<path d="M70.5 40.7819L72.7245 34C73.0297 35.0819 73.5755 36.0796 74.3208 36.9173C75.066 37.755 75.991 38.4107 77.0255 38.8346C80.5 40.1653 80.5 41.5012 80.5 41.5012L74.4235 45" stroke="#A0A0A0" stroke-width="2" stroke-linecap="round" stroke-linejoin="round"/>
<path d="M11.5 40.7819L9.28057 34C8.97542 35.0819 8.42956 36.0796 7.68432 36.9173C6.93909 37.755 6.01409 38.4107 4.97961 38.8346C1.50003 40.1653 1.5 41.5012 1.5 41.5012L7.57658 45" stroke="#A0A0A0" stroke-width="2" stroke-linecap="round" stroke-linejoin="round"/>
<path d="M25.5252 56C25.5252 56 25.0233 50.6974 28.5 49" stroke="#A0A0A0" stroke-width="2" stroke-linecap="round" stroke-linejoin="round"/>
<path d="M53.5 58C53.5 58 49.9748 53.8609 52.2847 50" stroke="#A0A0A0" stroke-width="2" stroke-linecap="round" stroke-linejoin="round"/>
<path d="M40.326 60C40.326 60 37.8371 54.9878 41.5 52" stroke="#A0A0A0" stroke-width="2" stroke-linecap="round" stroke-linejoin="round"/>
<path d="M34.6001 49.9947L33.5785 34L32.6001 50" stroke="#A0A0A0" stroke-width="2" stroke-linecap="round" stroke-linejoin="round"/>
<path d="M49.5 66L49.3448 71C49.0773 74.965 46.3277 78 43.0322 78C39.7367 78 36.9923 74.945 36.7194 71L36.5 66.315" stroke="#A0A0A0" stroke-width="2" stroke-linecap="round" stroke-linejoin="round"/>
<path d="M52.5 48.6728L51.5691 34L50.5 50" stroke="#A0A0A0" stroke-width="2" stroke-linecap="round" stroke-linejoin="round"/>
<path d="M42.5 95H45.437V82.9672C49.8037 82.1796 53.5166 76.6395 53.4999 69.0399V65" stroke="#A0A0A0" stroke-width="2" stroke-linecap="round" stroke-linejoin="round"/>
<path d="M35.5 81C33.7142 78.541 32.5709 74.5852 32.5804 69.742L32.5 66" stroke="#A0A0A0" stroke-width="2" stroke-linecap="round" stroke-linejoin="round"/>
<path d="M42.5 95H39.5L39.5113 83" stroke="#A0A0A0" stroke-width="2" stroke-linecap="round" stroke-linejoin="round"/>
<path d="M42.8022 20C41.7856 24.9138 43.5851 28.046 44.5 29" stroke="#A0A0A0" stroke-width="2" stroke-linecap="round" stroke-linejoin="round"/>
<path d="M42.5 1C42.5 1 47.2699 6.88903 44.7806 14.3056C44.704 14.5422 44.631 14.7737 44.5614 15" stroke="#A0A0A0" stroke-width="2" stroke-linecap="round" stroke-linejoin="round"/>
<path d="M51.5 8C51.5 8 54.8735 11.4698 52.8578 16.7658C50.8421 22.0619 52.0084 24.1782 52.4989 25" stroke="#A0A0A0" stroke-width="2" stroke-linecap="round" stroke-linejoin="round"/>
<path d="M33.5 8C33.5 8 36.8689 11.4698 34.8619 16.7658C32.8549 22.0619 34.0077 24.1782 34.5035 25" stroke="#A0A0A0" stroke-width="2" stroke-linecap="round" stroke-linejoin="round"/>
</svg>
