<svg width="52" height="78" viewBox="0 0 52 78" fill="none" xmlns="http://www.w3.org/2000/svg">
<path d="M9.50527 71.5H40.5V74.6684C40.5 75.1542 40.3275 75.6201 40.0203 75.9636C39.7132 76.307 39.2966 76.5 38.8623 76.5H11.1377C10.7034 76.5 10.2868 76.307 9.97966 75.9636C9.67254 75.6201 9.5 75.1542 9.5 74.6684V71.5H9.50527Z" stroke="#A0A0A0" stroke-width="2" stroke-linecap="round" stroke-linejoin="round"/>
<path d="M45.5 47.5V24.5" stroke="#A0A0A0" stroke-width="2" stroke-linecap="round" stroke-linejoin="round"/>
<path d="M45.5 63.5V57.5" stroke="#A0A0A0" stroke-width="2" stroke-linecap="round" stroke-linejoin="round"/>
<path d="M30.0476 33.599L33.6164 32.2268C34.1906 32.0082 34.8071 31.9224 35.4196 31.9759L38.6933 32.2642C38.9976 32.2918 39.3035 32.2327 39.5753 32.0937C39.8471 31.9547 40.0738 31.7416 40.2284 31.4794L45.1226 23.2361L46.545 21.848C46.7385 21.665 46.9934 21.5602 47.2603 21.5543C47.5273 21.5484 47.787 21.6417 47.9886 21.8159L50.5 24.0689L49.6898 18.068C49.5947 17.3565 49.2428 16.7038 48.6998 16.2313C48.1567 15.7588 47.4595 15.4989 46.7381 15.5H42.4447C41.5722 15.4994 40.7214 15.7721 40.0135 16.2795L17.7632 32.2322L3.7079 36.5033C3.25505 36.6414 2.83974 36.8802 2.49332 37.2016C2.1469 37.5229 1.8786 37.9184 1.7085 38.3582C1.5384 38.798 1.47091 39.2705 1.51144 39.74C1.55197 40.2095 1.69926 40.6636 1.94224 41.0681L5.00136 46.1561V66.5348C5.00079 66.8622 5.0654 67.1865 5.1916 67.4889C5.3178 67.7913 5.50314 68.0659 5.73666 68.2966L8.95667 71.5H41.2157L45.1173 67.6186" stroke="#A0A0A0" stroke-width="2" stroke-linecap="round" stroke-linejoin="round"/>
<path d="M5.5 46.5L8.87424 40.45C9.17964 39.9047 9.67157 39.4969 10.2535 39.3066C10.8353 39.1163 11.4651 39.1573 12.0192 39.4215L16.9179 41.759C17.1046 41.8489 17.3076 41.8968 17.5136 41.8996C17.7197 41.9024 17.9241 41.86 18.1131 41.7753C18.302 41.6905 18.4714 41.5653 18.6099 41.408C18.7485 41.2507 18.8531 41.0647 18.9168 40.8625L19.5084 38.987C19.6313 38.5926 19.839 38.232 20.1159 37.932C20.3928 37.632 20.7317 37.4004 21.1076 37.2545L25.5 35.5" stroke="#A0A0A0" stroke-width="2" stroke-linecap="round" stroke-linejoin="round"/>
<path d="M6.5 33.5V35.5" stroke="#A0A0A0" stroke-width="2" stroke-linecap="round" stroke-linejoin="round"/>
<path d="M43.5 15.5785V4.18442C43.5 3.47248 43.2106 2.78967 42.6954 2.28625C42.1801 1.78283 41.4814 1.5 40.7527 1.5H23.9542C23.9542 1.5 25.0107 7.56238 19.1529 7.79535C19.1529 7.79535 21.0279 16.1503 13.0622 16.1503C13.0622 16.1503 12.8238 20.9579 6.5 20.5025V24.5" stroke="#A0A0A0" stroke-width="2" stroke-linecap="round" stroke-linejoin="round"/>
</svg>
